<svg width="600" height="400" xmlns="http://www.w3.org/2000/svg">
  <!-- Background -->
  <rect width="600" height="400" fill="#1e2030" />
  
  <!-- Header -->
  <rect width="600" height="50" fill="#252a41" />
  <circle cx="30" cy="25" r="15" fill="#6366f1" />
  <rect x="55" y="20" width="100" height="10" rx="2" fill="#9ca3af" />
  <rect x="400" y="15" width="80" height="20" rx="10" fill="#374151" />
  <rect x="500" y="15" width="80" height="20" rx="10" fill="#6366f1" />
  
  <!-- Sidebar -->
  <rect x="0" y="50" width="150" height="350" fill="#252a41" />
  <rect x="20" y="80" width="110" height="30" rx="5" fill="#374151" />
  <rect x="30" y="90" width="10" height="10" rx="1" fill="#6366f1" />
  <rect x="50" y="90" width="60" height="10" rx="1" fill="#9ca3af" />
  
  <rect x="20" y="120" width="110" height="30" rx="5" fill="#1e2030" />
  <rect x="30" y="130" width="10" height="10" rx="1" fill="#6366f1" />
  <rect x="50" y="130" width="60" height="10" rx="1" fill="#9ca3af" />
  
  <rect x="20" y="160" width="110" height="30" rx="5" fill="#1e2030" />
  <rect x="30" y="170" width="10" height="10" rx="1" fill="#6366f1" />
  <rect x="50" y="170" width="60" height="10" rx="1" fill="#9ca3af" />
  
  <rect x="20" y="200" width="110" height="30" rx="5" fill="#1e2030" />
  <rect x="30" y="210" width="10" height="10" rx="1" fill="#6366f1" />
  <rect x="50" y="210" width="60" height="10" rx="1" fill="#9ca3af" />
  
  <!-- Main Content -->
  <text x="170" y="80" font-family="Arial" font-size="16" fill="#ffffff">Dashboard</text>
  
  <!-- Card 1 -->
  <rect x="170" y="100" width="130" height="140" rx="5" fill="#252a41" />
  <rect x="190" y="120" width="90" height="10" rx="2" fill="#9ca3af" />
  <rect x="190" y="140" width="90" height="10" rx="2" fill="#9ca3af" />
  <circle cx="190" cy="170" r="15" fill="#6366f1" />
  <rect x="215" y="165" width="65" height="10" rx="2" fill="#9ca3af" />
  <rect x="190" y="190" width="90" height="20" rx="5" fill="#6366f1" />
  
  <!-- Card 2 -->
  <rect x="320" y="100" width="130" height="140" rx="5" fill="#252a41" />
  <rect x="340" y="120" width="90" height="10" rx="2" fill="#9ca3af" />
  <rect x="340" y="140" width="90" height="10" rx="2" fill="#9ca3af" />
  <circle cx="340" cy="170" r="15" fill="#6366f1" />
  <rect x="365" y="165" width="65" height="10" rx="2" fill="#9ca3af" />
  <rect x="340" y="190" width="90" height="20" rx="5" fill="#6366f1" />
  
  <!-- Card 3 -->
  <rect x="470" y="100" width="130" height="140" rx="5" fill="#252a41" />
  <rect x="490" y="120" width="90" height="10" rx="2" fill="#9ca3af" />
  <rect x="490" y="140" width="90" height="10" rx="2" fill="#9ca3af" />
  <circle cx="490" cy="170" r="15" fill="#6366f1" />
  <rect x="515" y="165" width="65" height="10" rx="2" fill="#9ca3af" />
  <rect x="490" y="190" width="90" height="20" rx="5" fill="#6366f1" />
  
  <!-- Bottom Section -->
  <text x="170" y="280" font-family="Arial" font-size="16" fill="#ffffff">Recent Activity</text>
  
  <rect x="170" y="300" width="430" height="40" rx="5" fill="#252a41" />
  <circle cx="190" cy="320" r="15" fill="#374151" />
  <rect x="215" y="315" width="365" height="10" rx="2" fill="#9ca3af" />
  
  <rect x="170" y="350" width="430" height="40" rx="5" fill="#252a41" />
  <circle cx="190" cy="370" r="15" fill="#374151" />
  <rect x="215" y="365" width="365" height="10" rx="2" fill="#9ca3af" />
</svg> 